<svg xmlns="http://www.w3.org/2000/svg" version="1.1" xmlns:xlink="http://www.w3.org/1999/xlink" xmlns:svgjs="http://svgjs.dev/svgjs" width="1000" height="542" viewBox="0 0 1000 542"><g transform="matrix(1,0,0,1,-0.6060585068777868,0.3040419256915925)"><svg viewBox="0 0 396 215" data-background-color="#fefee2" preserveAspectRatio="xMidYMid meet" height="542" width="1000" xmlns="http://www.w3.org/2000/svg" xmlns:xlink="http://www.w3.org/1999/xlink"><defs></defs><g id="tight-bounds" transform="matrix(1,0,0,1,0.23999916872361382,-0.12060703694407948)"><svg viewBox="0 0 395.52 215.2412122766408" height="215.2412122766408" width="395.52"><g><svg viewBox="0 0 395.52 215.2412122766408" height="215.2412122766408" width="395.52"><g transform="matrix(1,0,0,1,0,133.02770423614052)"><svg viewBox="0 0 395.52 82.21350804050027" height="82.21350804050027" width="395.52"><g><svg viewBox="0 0 395.52 82.21350804050027" height="82.21350804050027" width="395.52"><g><svg viewBox="0 0 395.52 82.21350804050027" height="82.21350804050027" width="395.52"><g transform="matrix(1,0,0,1,0,0)"><svg width="395.52" viewBox="3.3499999046325684 -34.599998474121094 167.88999938964844 34.89999771118164" height="82.21350804050027" data-palette-color="#7fc37e"><path d="M35.3-29.95L35.3-4.75Q35.3-2.55 34-1.28 32.7 0 30.2 0L30.2 0Q29.55 0 28.9-0.15 28.25-0.3 27.53-0.7 26.8-1.1 26.25-1.45 25.7-1.8 24.88-2.53 24.05-3.25 23.58-3.68 23.1-4.1 22.1-5.05 21.1-6 20.65-6.45L20.65-6.45 11.5-15.1 11.5-4.25Q11.5-1.8 10.58-0.9 9.65 0 7.65 0L7.65 0Q5.45 0 4.4-1 3.35-2 3.35-4.35L3.35-4.35 3.35-28.5Q3.35-31.35 4.8-32.8 6.25-34.25 8.95-34.25L8.95-34.25Q10.8-34.25 11.93-33.68 13.05-33.1 14.6-31.6L14.6-31.6 27.25-19 27.25-29.9Q27.25-32.05 28.33-33.13 29.4-34.2 31.25-34.2L31.25-34.2Q33.4-34.2 34.35-33.2 35.3-32.2 35.3-29.95L35.3-29.95ZM40.8-30.8L40.8-30.8Q40.8-32.45 42.22-33.52 43.65-34.6 46.25-34.6L46.25-34.6Q51.7-34.6 51.7-30.8L51.7-30.8Q51.7-28.7 50.32-27.85 48.95-27 46.25-27L46.25-27Q43.9-27 42.35-27.9 40.8-28.8 40.8-30.8ZM51.65-18.35L51.65-5.35Q51.65-2.35 50.4-1.18 49.15 0 46 0L46 0Q43.05 0 41.97-1.38 40.9-2.75 40.9-5.9L40.9-5.9 40.9-18.2Q40.9-20.75 42.27-22.3 43.65-23.85 45.95-23.85L45.95-23.85Q48.65-23.85 50.15-22.68 51.65-21.5 51.65-18.35L51.65-18.35ZM69.85-6.25L76.5-6.3Q77.95-6.3 78.75-5.9 79.55-5.5 79.85-4.75 80.15-4 80.15-2.7L80.15-2.7Q80.15-1.05 79.02-0.53 77.9 0 75.05 0L75.05 0 60.3 0Q58.6 0 57.17-1.18 55.75-2.35 55.75-4.25L55.75-4.25Q55.75-6.35 56.3-7.53 56.85-8.7 58.8-10.65L58.8-10.65 65.35-17.55 61.7-17.55Q59-17.55 57.8-18.3 56.6-19.05 56.6-20.75L56.6-20.75Q56.6-22.6 57.45-23.23 58.3-23.85 61-23.85L61-23.85 76.2-23.85Q78.05-23.85 79.12-22.83 80.2-21.8 80.2-20L80.2-20Q80.2-18.3 79.75-17.4 79.3-16.5 77.4-14.35L77.4-14.35 69.85-6.25ZM92.99 0.3L92.99 0.3Q89.04 0.3 86.44-2.93 83.84-6.15 83.84-11.75L83.84-11.75Q83.84-17.45 86.42-20.83 88.99-24.2 92.99-24.2L92.99-24.2Q97.04-24.2 100.49-21.35L100.49-21.35Q101.84-23.85 104.84-23.85L104.84-23.85Q107.54-23.85 109.04-22.68 110.54-21.5 110.54-18.35L110.54-18.35 110.54-5.35Q110.54-2.35 109.29-1.18 108.04 0 104.89 0L104.89 0Q101.59 0 100.54-1.85L100.54-1.85Q97.34 0.3 92.99 0.3ZM99.79-7.2L99.79-16.55Q98.94-18 97.59-18L97.59-18Q96.29-18 95.49-16.1 94.69-14.2 94.69-11.75L94.69-11.75Q94.69-9.45 95.44-7.65 96.19-5.85 97.54-5.85L97.54-5.85Q98.94-5.85 99.79-7.2L99.79-7.2ZM144.89-4.15L144.89-13.2Q144.89-16 142.64-16L142.64-16Q141.64-16 141.14-14.85 140.64-13.7 140.64-11.95L140.64-11.95Q140.64-9.3 140.56-7.55 140.49-5.8 140.24-4.4 139.99-3 139.64-2.2 139.29-1.4 138.69-0.88 138.09-0.35 137.34-0.18 136.59 0 135.44 0L135.44 0Q133.69 0 132.62-0.5 131.54-1 131.09-1.9 130.64-2.8 130.64-4.15L130.64-4.15 130.64-13.2Q130.64-16 128.39-16L128.39-16Q127.49-16 126.92-14.98 126.34-13.95 126.34-12.3L126.34-12.3 126.34-5.35Q126.34-2.35 125.09-1.18 123.84 0 120.69 0L120.69 0Q117.74 0 116.67-1.38 115.59-2.75 115.59-5.9L115.59-5.9 115.59-18.2Q115.59-20.75 116.97-22.3 118.34-23.85 120.64-23.85L120.64-23.85Q124.74-23.85 125.84-21.2L125.84-21.2Q127.74-22.6 129.56-23.15 131.39-23.7 133.84-23.7L133.84-23.7Q137.54-23.7 139.19-20.5L139.19-20.5Q139.44-20.7 139.69-20.9L139.69-20.9Q143.54-23.7 149.14-23.7L149.14-23.7Q152.69-23.7 154.24-21 155.79-18.3 155.79-11.95L155.79-11.95Q155.79-9.3 155.72-7.55 155.64-5.8 155.39-4.4 155.14-3 154.77-2.2 154.39-1.4 153.72-0.88 153.04-0.35 152.22-0.18 151.39 0 150.14 0L150.14 0Q148.24 0 147.06-0.5 145.89-1 145.39-1.9 144.89-2.8 144.89-4.15L144.89-4.15ZM160.34-30.8L160.34-30.8Q160.34-32.45 161.76-33.52 163.19-34.6 165.79-34.6L165.79-34.6Q171.24-34.6 171.24-30.8L171.24-30.8Q171.24-28.7 169.86-27.85 168.49-27 165.79-27L165.79-27Q163.44-27 161.89-27.9 160.34-28.8 160.34-30.8ZM171.19-18.35L171.19-5.35Q171.19-2.35 169.94-1.18 168.69 0 165.54 0L165.54 0Q162.59 0 161.51-1.38 160.44-2.75 160.44-5.9L160.44-5.9 160.44-18.2Q160.44-20.75 161.81-22.3 163.19-23.85 165.49-23.85L165.49-23.85Q168.19-23.85 169.69-22.68 171.19-21.5 171.19-18.35L171.19-18.35Z" opacity="1" transform="matrix(1,0,0,1,0,0)" fill="#7fc37e" class="undefined-text-0" data-fill-palette-color="primary" id="text-0"></path></svg></g></svg></g></svg></g></svg></g><g transform="matrix(1,0,0,1,140.9504659440143,0)"><svg viewBox="0 0 113.61906811197136 113.61906811197139" height="113.61906811197139" width="113.61906811197136"><g><svg></svg></g><g id="icon-0"><svg viewBox="0 0 113.61906811197136 113.61906811197139" height="113.61906811197139" width="113.61906811197136"><g><path d="M34.086 113.619c-18.825 0-34.086-15.261-34.086-34.086v-45.447c0-18.825 15.261-34.086 34.086-34.086h45.447c18.825 0 34.086 15.261 34.086 34.086v45.447c0 18.825-15.261 34.086-34.086 34.086z" fill="#7fc37e" data-fill-palette-color="accent"></path></g><g transform="matrix(1,0,0,1,29.2652494870775,22.72381362239428)"><svg viewBox="0 0 55.08856913781636 68.17144086718282" height="68.17144086718282" width="55.08856913781636"><g><svg xmlns="http://www.w3.org/2000/svg" viewBox="10.683683395385742 0.7970454096794128 71.53843688964844 88.5279541015625" style="enable-background:new 0 0 91 91" xml:space="preserve" x="0" y="0" height="68.17144086718282" width="55.08856913781636" class="icon-x-0" data-fill-palette-color="quaternary" id="x-0"><path d="M10.7 43.3c0.9 7.7 1.4 14.3 2.3 21.4 0.7 5.9 0.6 12.8 2.7 18.4s7 6 12.3 6.1c7.7 0.2 15.5 0.1 23.3 0.1h11c2.9 0 5.8-0.2 8.1-2.2 2.5-2.1 4.4-5.6 5.1-8.8 1.3-5.7 1.8-11.7 2.7-17.5 0.9-5.6 1.8-11.2 2.7-16.7 0.3-1.7-1.2-2.8-2.8-2.1-1 0.4-2 0.7-3.1 0.9 2.9-8.3 5.1-16.9 6.5-25.6C82.4 11.5 84 1 75.1 0.8c-8.2-0.2-12.9 9.8-15.9 15.9-1.2 2.4-2.3 4.9-3.3 7.3-1.6-1.3-3.6-2.3-4.4-3.7 0.3-0.2 0.7-0.5 1.1-0.7 0.6-0.4 1.1-1.3 0.8-2-0.8-2.4-1.7-4.7-2.5-7.1-0.3-1-1.1-1.3-2.1-1.2-5.8 0.9-11.1 3.2-16.4 5.6-0.7 0.3-1 1.3-0.8 2 0.6 2.4 1.4 4.7 2.1 7.1 0.3 1 1.3 1.5 2.3 1.3 0.3-0.1 0.7-0.2 1.1-0.3 0.2 1 0.1 1.8-0.4 3-0.6 1.4-1 2.8-1.3 4.2-1.5-2.5-4-4.4-7.4-5.2-2.3-0.5-4.7-0.5-7 0.1-1.3-1.4-2.8-2.6-4.5-3.2-1.8-0.6-3.4 2-1.9 3.2 0.8 0.6 1.6 1.1 2.4 1.7l-1.2 0.9c-3.2 2.7-5.1 7.5-3.3 11.5-0.3 0.2-2 0.8-1.8 2.1z m49.5-20.2c1.4-3.2 3-6.3 4.7-9.3 1.9-3.3 4.2-7.5 8-8.8 7.2-2.5 5.8 7.4 4.5 13.5-3.9-0.8-8.3-0.6-11.5 2-1.2 1 0.1 2.6 1.4 2.4 3.3-0.5 6-1.4 9.3-0.7v0.2c-0.3 1.5-0.7 3-1 4.5-4-0.6-8.3-0.4-11.8 1.8-1.2 0.8-0.5 2.7 1 2.3 3.4-0.9 6.6-1.2 10-0.8-0.5 1.7-1 3.4-1.6 5.1-4-1.1-9.3-1.1-12.2 1.6-0.7 0.7-0.1 1.7 0.7 1.8 2 0.1 4-0.4 6-0.4 1.4 0 2.8 0.3 4.2 0.6-0.5 1.4-1.1 2.8-1.6 4.2-3.3-0.4-6.6-1.3-9.7-1.8-2.4-0.3-4.6-0.3-6.8 0 1.8-6.2 3.8-12.3 6.4-18.2zM52 25.2c1 0.6 1.8 1.4 2.6 2.1-0.4 1.1-0.8 2.2-1.2 3.2-1.1 1.2-1.9 2.2-3.8 2.3-1.9 0.1-3.7-0.5-5.6-0.4-1.8 0.2-3.5 0.8-5 1.9 0.2-1.6 0.6-3.3 1.3-5.1 0.6-1.4 1.1-2.8 0.8-4.3-0.1-0.7-0.5-1.2-0.6-1.9 0-0.2-0.1-0.4-0.1-0.5 0.4-0.1 0.8-0.2 1.2-0.4 0.9-0.3 5.3-2.3 5.9-1.9 0.5 0.3 0.7 2.2 1.2 2.8 0.9 1.1 2.3 1.6 3.3 2.2z m-0.5 11.1c-0.5 1.8-1 3.7-1.5 5.6-1.8 0.4-3.6 0.9-5.5 1.4-1.4 0.4-2.9 0.7-4.3 0.8-0.5-1.7-0.9-3.3-1.1-4.9 1.5-1.8 3.1-3.2 5.7-3.2 1.8 0 3.6 0.6 5.4 0.5 0.4 0 0.9-0.1 1.3-0.2zM36.4 21.2c-0.4-1.2-0.9-2.4-1.2-3.7 4.1-2 8.2-3.7 12.7-4.5 0.4 1.3 0.9 2.6 1.3 3.9 0 0-12.2 2.4-12.8 4.3z m-17 11.4c0.1-0.1 0.2-0.1 0.3-0.2 0.3 0.6 0.6 1.2 0.9 1.9 0.7 1.4 3.2 0.8 3-0.8-0.1-0.8-0.2-1.5-0.5-2.3 1.6-0.3 3.4-0.2 4.9 0.3 5.2 1.6 6.6 7.4 5.2 12.1-2.4-0.6-4.7-1.5-7-2.2-3.3-0.9-6.8-1.7-10.1-1.2 0.1-3.1 0.4-5.7 3.3-7.6zM14.2 45c5.1-2.7 11.9 0.6 17 2.1 5.8 1.6 10.8 1 16.5-0.6 2.9-0.8 5.8-1.7 8.8-1.7 2.9 0 5.7 0.6 8.6 1.2 4 0.8 7.8 1.3 11.6 0.4-1.4 9.1-4.7 30.1-5 31.4-0.4 1.5-1.2 3.2-2.1 4.5-2.4 3.3-6.2 2.7-9.8 2.6-6.7-0.2-13.5-0.2-20.2-0.1h-9.8c-2.6 0-7.8 1.1-9.6-1.3-1.8-2.4-1.8-6.3-2.1-9.1-0.5-3.6-0.9-7.1-1.4-10.7-0.8-6.2-1.6-12.4-2.6-18.5 0-0.2 0-0.2 0.1-0.2z" fill="#fefee2" data-fill-palette-color="quaternary"></path><path d="M20.6 38.9c0.6 0 1.2-0.6 1.2-1.2 0-0.7-0.5-1.2-1.2-1.2-0.6 0-1.2 0.6-1.2 1.2s0.5 1.2 1.2 1.2zM26.6 36.4c0.6 0 1.2-0.6 1.2-1.2 0-0.7-0.5-1.2-1.2-1.2-0.6 0-1.2 0.6-1.2 1.2 0 0.7 0.5 1.2 1.2 1.2zM30.1 40.1c0.6 0 1.2-0.6 1.2-1.2 0-0.7-0.5-1.2-1.2-1.2-0.6 0-1.2 0.6-1.2 1.2s0.5 1.2 1.2 1.2zM27.6 65.7c2.4-0.5 4.5-2.8 6.7-4 2.5-1.4 5.2-2.4 8-2.9 0.9-0.2 1.6-0.6 2.1 0.2 0.6 0.9-0.2 1.5-0.7 2.3-0.8 1.3-1.6 2.7-2.3 4-1.1 2.2-2.7 4.7-2.9 7.2-0.1 1.7 0.3 3.3 1.8 4.2 2 1.3 4.4 0.2 6.4-0.5 5.9-2.1 11.5-4.9 16.7-8.2 2.4-1.5 0.2-5.4-2.3-3.9-2.7 1.7-11.8 6.4-13.5 7.1-0.8 0.3-3.5 1.8-4.2 1.6-1.4-0.5 0.3-2.9 0.8-3.9 0.7-1.4 5.3-8.5 4.9-11-1.4-9-21.6 0.8-22.9 6.4-0.1 1 0.6 1.6 1.4 1.4z" fill="#fefee2" data-fill-palette-color="quaternary"></path></svg></g></svg></g></svg></g></svg></g><g></g></svg></g></svg><rect width="395.52" height="215.2412122766408" fill="none" stroke="none" visibility="hidden"></rect></g></svg></g></svg>